<svg xmlns="http://www.w3.org/2000/svg" role="img" viewBox="0 0 24 24" width="28" height="28" aria-label="Rust"><title>Rust</title><path fill="#CE422B" d="M23.8346 11.7033l-1.0073-.6236a13.7268 13.7268 0 00-.0283-.2936l.8656-.8069a.3483.3483 0 00-.1154-.5786l-1.1066-.414a8.4632 8.4632 0 00-.087-.2856l.6904-.9587a.3462.3462 0 00-.2257-.5446l-1.1663-.1894a9.3552 9.3552 0 00-.1407-.2622l.49-1.0761a.3437.3437 0 00-.0274-.3374.3486.3486 0 00-.3-.1531l-1.1845.0416a6.7005 6.7005 0 00-.1873-.2268l.2723-1.1533a.3483.3483 0 00-.4187-.4187l-1.1533.2723a14.1447 14.1447 0 00-.2268-.1873l.0416-1.1845a.3439.3439 0 00-.1531-.3.3486.3486 0 00-.3374-.0274l-1.076.49a9.36 9.36 0 00-.2624-.1407l-.1892-1.1663a.3483.3483 0 00-.5446-.2257l-.9587.6904a8.4318 8.4318 0 00-.2856-.087l-.414-1.1066a.3483.3483 0 00-.5786-.1154l-.8069.8656a13.5928 13.5928 0 00-.2936-.0283L12.2967.1654a.348.348 0 00-.5934 0l-.6236 1.0073a13.7186 13.7186 0 00-.2936.0283L9.9792.3327a.3483.3483 0 00-.5786.1154l-.414 1.1066a8.4494 8.4494 0 00-.2856.087L7.7423.9513a.3483.3483 0 00-.5446.2257L7.0085 2.343a9.3547 9.3547 0 00-.2622.1407l-1.0761-.49a.3482.3482 0 00-.3374.0274.3438.3438 0 00-.1531.3l.0416 1.1845a14.0068 14.0068 0 00-.2268.1873l-1.1533-.2723a.3483.3483 0 00-.4187.4187l.2723 1.1533c-.0631.0618-.1259.124-.1873.1873l-1.1845-.0416a.3437.3437 0 00-.3.1531.3486.3486 0 00-.0274.3374l.49 1.076a9.363 9.363 0 00-.1407.2624l-1.1663.1892a.3483.3483 0 00-.2257.5446l.6904.9587a8.4436 8.4436 0 00-.087.2856l-1.1066.414a.3483.3483 0 00-.1154.5786l.8656.8069a13.6014 13.6014 0 00-.0283.2936l-1.0073.6236a.348.348 0 000 .5934l1.0073.6236c.0086.098.018.1961.0283.2936l-.8656.8069a.3483.3483 0 00.1154.5786l1.1066.414c.0273.0961.0563.1917.087.2856l-.6904.9587a.3462.3462 0 00.2257.5446l1.1663.1894c.0453.0879.0921.1751.1407.2622l-.49 1.0761a.3437.3437 0 00.0274.3374.3486.3486 0 00.3.1531l1.1845-.0416c.0615.0631.1237.1259.1873.1873l-.2723 1.1533a.3483.3483 0 00.4187.4187l1.1533-.2723c.0754.0637.1512.1265.2268.1873l-.0416 1.1845a.3439.3439 0 00.1531.3.3486.3486 0 00.3374.0274l1.076-.49c.087.0486.1743.0954.2624.1407l.1892 1.1663a.3483.3483 0 00.5446.2257l.9587-.6904c.0946.0304.1897.0593.2856.087l.414 1.1066a.348.348 0 00.5786.1154l.8069-.8656c.0975.0103.1956.0197.2936.0283l.6236 1.0073a.348.348 0 00.5934 0l.6236-1.0073c.098-.0086.1961-.018.2936-.0283l.8069.8656a.3483.3483 0 00.5786-.1154l.414-1.1066c.0961-.0273.1917-.0567.2856-.087l.9587.6904a.3462.3462 0 00.5446-.2257l.1894-1.1663c.0879-.0453.1751-.0921.2622-.1407l1.0761.49a.3483.3483 0 00.3374-.0274.3438.3438 0 00.1531-.3l-.0416-1.1845a14.0068 14.0068 0 00.2268-.1873l1.1533.2723a.3483.3483 0 00.4187-.4187l-.2723-1.1533c.0637-.0754.1265-.1512.1873-.2268l1.1845.0416a.3437.3437 0 00.3-.1531.3486.3486 0 00.0274-.3374l-.49-1.076c.0486-.087.0954-.1743.1407-.2624l1.1663-.1892a.3483.3483 0 00.2257-.5446l-.6904-.9587c.0304-.0946.0593-.1897.087-.2856l1.1066-.414a.3483.3483 0 00.1154-.5786l-.8656-.8069c.0103-.0975.0197-.1956.0283-.2936l1.0073-.6236a.348.348 0 000-.5934zm-6.7215 8.3186a.7168.7168 0 01.2988-1.4016.717.717 0 11-.2996 1.4016zm-.3436-2.3232a.6516.6516 0 00-.7736.5016l-.3584 1.674c-1.1078.503-2.3382.7824-3.6357.7824a8.7519 8.7519 0 01-3.7053-.8156l-.3584-1.674a.6511.6511 0 00-.7734-.5008l-1.4774.3172a8.7305 8.7305 0 01-.7638-.9006h7.1904c.0813 0 .1357-.0147.1357-.0886v-2.5406c0-.0739-.0544-.0886-.1357-.0886h-2.103v-1.6119h2.2735c.2075 0 1.1102.0593 1.3982 1.2138.0901.3535.2877 1.5044.4229 1.873.1348.4131.6839 1.2379 1.2691 1.2379h3.5811a.7484.7484 0 00.1294-.0133 8.7767 8.7767 0 01-.8138.9542zM6.8369 20.024a.7168.7168 0 01-.2996-1.4016.717.717 0 11.2996 1.4016zM4.1177 8.9972a.7167.7167 0 11-1.3097.5817.7167.7167 0 011.3097-.5817zm-.8353 1.9813l1.539-.6844a.6522.6522 0 00.331-.8618l-.3167-.7165h1.2464v5.6146H3.5232a8.7856 8.7856 0 01-.2836-3.3465zm6.5375-.5273V8.795h2.9645c.1531 0 1.081.1771 1.081.8712 0 .5765-.7118.7834-1.2977.7834zM21.6539 12c0 .3232-.0119.6435-.0356.9608h-.9273c-.0927 0-.1302.0608-.1302.1517v.4243c0 .9993-.5636 1.2172-1.0572 1.2724-.4699.0531-.99-.1969-1.0546-.4848-.2775-1.5595-.7391-1.8929-1.4685-2.4694.9054-.5747 1.8469-1.4232 1.8469-2.5583 0-1.2247-.8402-1.9961-1.4125-2.3748-.8034-.5301-1.6929-.6359-1.9327-.6359H5.4383a8.767 8.767 0 014.9053-2.7699l1.0968 1.1508a.6511.6511 0 00.9204.021l1.2266-1.1734a8.7695 8.7695 0 016.0011 4.2762l-.8398 1.8974a.6522.6522 0 00.331.8618l1.6217.7211c.0281.2874.0424.5764.0424.8672zM11.6303.7188a.7167.7167 0 111.4029.3067.7167.7167 0 01-1.4029-.3067zm8.9819 7.229a.7167.7167 0 111.3096-.5817.7167.7167 0 01-1.3096.5817z"/></svg>
